<?xml version="1.0" standalone="no"?>
<!DOCTYPE svg PUBLIC "-//W3C//DTD SVG 20010904//EN"
 "http://www.w3.org/TR/2001/REC-SVG-20010904/DTD/svg10.dtd">
<svg version="1.0" xmlns="http://www.w3.org/2000/svg"
 width="300.000000pt" height="196.000000pt" viewBox="0 0 300.000000 196.000000"
 preserveAspectRatio="xMidYMid meet">

<g transform="translate(138.500000,120.000000) scale(0.016000,-0.016000)"
fill="#000000" stroke="none">
<path d="M1426 1669 c-70 -55 -131 -227 -157 -444 -12 -106 -12 -388 1 -495
32 -263 121 -450 212 -450 42 0 109 69 133 139 11 28 22 51 26 51 4 0 12 -13
19 -29 19 -47 68 -91 102 -91 40 0 60 12 91 57 134 194 155 802 37 1077 -71
166 -158 175 -237 22 -9 -16 -15 -8 -43 53 -55 118 -122 159 -184 110z m187
-188 c18 -17 18 -21 -2 -97 -32 -130 -43 -230 -44 -399 0 -173 12 -287 44
-404 l20 -74 -22 -23 c-117 -125 -244 255 -209 623 20 206 55 319 117 373 37
33 62 33 96 1z m259 -170 c47 -55 63 -138 63 -331 0 -153 -3 -184 -22 -245
-13 -42 -33 -81 -48 -95 -24 -23 -28 -24 -53 -9 -89 49 -122 437 -53 619 36
94 70 112 113 61z"/>
<path d="M1236 1589 c-85 -45 -124 -75 -197 -149 -84 -84 -146 -193 -174 -305
-32 -126 -11 -315 48 -432 63 -123 185 -247 309 -313 l61 -33 -52 63 c-57 68
-120 185 -145 270 -22 74 -46 231 -46 306 0 200 82 433 200 567 23 26 40 47
38 47 -2 0 -21 -9 -42 -21z"/>
<path d="M2055 1144 c-37 -79 -28 -286 16 -329 20 -20 20 -20 35 0 26 35 36
98 32 200 -6 148 -45 209 -83 129z"/>
</g>
</svg>
