<?xml version="1.0" encoding="utf-8"?>

<!DOCTYPE svg PUBLIC "-//W3C//DTD SVG 1.1//EN" "http://www.w3.org/Graphics/SVG/1.1/DTD/svg11.dtd">
<!-- Uploaded to: SVG Repo, www.svgrepo.com, Generator: SVG Repo Mixer Tools -->
<svg height="800px" width="800px" version="1.1" id="_x32_" xmlns="http://www.w3.org/2000/svg" xmlns:xlink="http://www.w3.org/1999/xlink" 
	 viewBox="0 0 512 512"  xml:space="preserve">
<style type="text/css">
	.st0{fill:#000000;}
</style>
<g>
	<path class="st0" d="M445.21,438.315c-10.7-20.671-27.49-34.113-43.889-43.241c-16.399-9.146-32.825-14.33-43.578-18.379
		c-8.505-3.16-17.456-7.263-23.466-11.498c-3.01-2.087-5.212-4.192-6.349-5.754c-1.172-1.625-1.234-2.344-1.252-2.752
		c0-8.08,0-18.149,0-31.245c5.345-5.984,11.765-13.487,17.776-23.121c6.269-10.033,11.853-22.516,15.298-37.495
		c1.963-0.959,3.916-2.06,5.825-3.4c5.869-4.04,10.832-9.945,14.863-17.625c4.084-7.716,7.601-17.376,11.338-30.437
		c2.37-8.319,3.48-15.067,3.49-21.025c0.009-5.522-1.012-10.538-3.365-14.818c-1.74-3.197-4.2-5.781-6.677-7.512
		c-2.495-1.74-4.831-2.716-6.757-3.357c-0.008-0.248-0.017-0.461-0.017-0.736c-0.028-6.472,1.261-17.358,2.726-27.32
		c0.879-6.091,1.42-12.563,1.42-19.25c0-10.228-1.26-21.007-4.546-31.644c-4.874-15.938-14.65-31.618-30.934-43.427
		c-16.168-11.765-38.312-19.596-67.56-21.949c-32.621-3.978-51.906-7.734-67.488-11.347c-15.565-3.596-27.844-7.201-45.744-10.69
		v0.009C165.276,0.107,164.246,0,163.296,0c-2.344-0.018-4.857,0.595-6.907,1.678c-3.925,2.078-5.949,5.034-7.255,7.467
		c-2.202,4.35-2.912,8.293-3.614,12.457c-0.932,6.172-1.296,12.724-1.811,18.148c-0.248,2.7-0.542,5.106-0.852,6.784
		c-0.151,0.835-0.32,1.483-0.426,1.829l-0.08,0.257c-15.706,27.552-19.596,56.337-19.596,78.623c0,17.74,2.478,31.582,3.694,37.656
		c0.444,2.264,0.621,3.818,0.719,5.06c-1.252,0.888-2.566,1.936-3.933,3.277c-2.442,2.406-4.883,5.655-6.66,9.776
		c-1.776,4.102-2.849,9.021-2.841,14.49c0,4.262,0.622,8.835,1.954,13.772c4.83,17.935,10.832,30.392,18.308,39.377
		c5.575,6.793,12.03,11.241,18.255,14.215c3.462,14.961,9.038,27.436,15.298,37.46c6.01,9.634,12.43,17.136,17.776,23.121
		c0,13.096,0,23.164,0,31.245c0.008,0.151-0.063,0.985-1.376,2.752c-1.891,2.584-6.428,6.224-11.942,9.323
		c-5.504,3.135-11.942,5.878-17.553,7.858c-7.29,2.575-17.092,5.744-27.631,10.264c-15.805,6.766-33.553,16.604-47.617,32.888
		c-14.117,16.23-23.885,39.049-23.796,68.864c0,4.102,0.177,8.364,0.542,12.75L56.838,512h10.646h387.679l0.888-10.61
		c0.364-4.378,0.542-8.622,0.542-12.715C456.61,468.805,452.348,452.05,445.21,438.315z M433.454,488.862H78.547
		c0-0.071-0.008-0.142-0.008-0.222c0.017-16.656,3.445-29.469,8.763-39.839c7.991-15.503,20.626-25.998,34.557-33.802
		c13.922-7.778,28.759-12.52,40.284-16.559c8.932-3.17,19.276-7.716,28.217-13.914c4.466-3.116,8.621-6.659,12.022-11.107
		c3.338-4.395,6.064-10.096,6.073-16.728c0-9.003,0-20.244,0-35.658v-4.448l-2.966-3.294c-5.815-6.437-12.43-13.781-18.308-23.192
		c-5.861-9.429-10.983-20.848-13.602-35.658l-1.172-6.614l-6.331-2.273c-5.594-2.051-9.723-4.298-14.322-9.696
		c-4.529-5.434-9.448-14.677-13.736-30.597c-0.87-3.231-1.163-5.789-1.163-7.76c0.009-2.548,0.453-4.146,0.95-5.31
		c0.746-1.705,1.74-2.646,2.601-3.294l0.968-0.586l0.045-0.026l1.154-0.382l1.297-0.862c1.98-1.278,3.898-3.605,4.963-6.259
		c1.101-2.682,1.563-5.62,1.571-9.136c0-3.126-0.381-6.748-1.278-11.259c-1.057-5.3-3.24-17.518-3.24-33.145
		c-0.009-19.72,3.516-44.545,16.692-67.426c1.563-2.788,2.157-5.106,2.699-7.467c0.879-4.067,1.269-8.248,1.651-12.555
		c0.48-5.656,0.933-11.4,1.608-15.431c13.478,2.859,24.222,5.877,38.312,9.145c16.292,3.791,36.678,7.724,69.921,11.782l0.231,0.035
		l0.274,0.026c17.589,1.368,31.414,4.866,42.184,9.625c16.151,7.201,25.625,16.941,31.671,28.004
		c6.003,11.072,8.338,23.831,8.338,36.368c0,5.434-0.444,10.832-1.181,15.938c-1.5,10.416-2.938,21.638-2.966,30.632
		c0.009,2.841,0.124,5.47,0.622,8.222c0.257,1.376,0.604,2.806,1.278,4.43c0.675,1.607,1.669,3.525,3.739,5.461l0.017,0.009
		c2.264,1.997,4.067,2.627,5.336,3.125c2.256,0.764,3.499,0.976,4.386,1.27l0.995,0.373c0.124,0.328,0.444,1.34,0.444,3.533
		c0.009,2.921-0.621,7.769-2.601,14.677c-4.626,16.328-8.772,25.625-12.262,30.419c-1.749,2.433-3.241,3.836-4.901,4.999
		c-1.67,1.163-3.65,2.113-6.446,3.117l-6.331,2.264l-1.172,6.624c-2.619,14.81-7.742,26.228-13.602,35.658
		c-5.877,9.411-12.492,16.755-18.308,23.192l-2.957,3.294v4.448c0,15.414,0,26.655,0,35.658c-0.018,6.384,2.486,12.075,5.744,16.462
		c4.937,6.614,11.525,11.258,18.557,15.298c7.041,3.995,14.651,7.227,21.789,9.908c7.751,2.904,16.888,5.949,26.309,10.033
		c14.143,6.083,28.634,14.375,39.297,26.708c10.638,12.386,18.122,28.617,18.211,53.576
		C433.463,488.729,433.454,488.809,433.454,488.862z"/>
</g>
</svg>